<?xml version="1.0" standalone="no"?>
<!DOCTYPE svg PUBLIC "-//W3C//DTD SVG 20010904//EN"
 "http://www.w3.org/TR/2001/REC-SVG-20010904/DTD/svg10.dtd">
<svg version="1.0" xmlns="http://www.w3.org/2000/svg"
 width="512.000000pt" height="512.000000pt" viewBox="0 0 512.000000 512.000000"
 preserveAspectRatio="xMidYMid meet">

<g transform="translate(0.000000,512.000000) scale(0.100000,-0.100000)"
fill="#FFF" stroke="none">
<path d="M1001 4384 c-169 -45 -301 -180 -346 -351 -23 -87 -22 -1900 0 -1988
57 -217 250 -365 477 -365 l68 0 0 -454 c0 -443 0 -454 21 -480 25 -31 76 -35
107 -8 11 9 108 135 216 280 l196 262 752 0 753 0 280 -280 c253 -252 284
-280 313 -280 22 0 41 9 57 25 l25 24 0 256 0 255 68 0 c228 0 420 148 477
367 22 86 22 1900 0 1986 -45 173 -178 307 -350 352 -33 8 -74 15 -91 15 -28
0 -32 4 -38 34 -21 110 -135 255 -244 310 -115 58 -54 56 -1427 55 -1067 0
-1268 -3 -1314 -15z m2649 -172 c72 -35 114 -75 151 -144 l34 -63 0 -965 0
-965 -27 -51 c-40 -76 -70 -107 -140 -145 l-63 -34 -805 -2 c-443 -2 -815 -5
-826 -8 -14 -3 -127 -145 -315 -397 l-294 -392 -5 377 c-5 344 -7 378 -23 394
-15 15 -42 19 -160 24 -137 5 -144 6 -205 39 -68 36 -109 78 -144 150 l-23 45
0 965 0 965 25 50 c43 86 125 154 215 176 17 4 599 6 1295 6 l1265 -2 45 -23z
m485 -403 c65 -31 109 -73 146 -141 l34 -63 0 -965 0 -965 -27 -51 c-40 -76
-70 -107 -140 -144 -61 -33 -68 -34 -206 -39 -193 -8 -182 8 -182 -249 l0
-196 -223 222 -223 222 -727 0 -728 0 91 120 91 120 767 0 c844 0 826 -1 943
61 70 38 157 126 193 197 57 113 56 91 56 1035 l0 869 47 -7 c26 -4 65 -15 88
-26z"/>
<path d="M2108 3984 c-107 -26 -247 -112 -287 -178 -48 -77 -35 -175 33 -242
84 -85 177 -81 305 11 97 71 240 -9 241 -133 0 -79 -42 -130 -135 -162 -75
-26 -118 -59 -152 -118 l-28 -47 0 -211 0 -210 27 -41 c41 -62 90 -88 168 -88
78 0 127 26 168 88 25 37 27 50 30 162 l4 121 45 24 c58 31 153 124 189 185
101 173 109 372 22 546 -115 230 -381 354 -630 293z m296 -182 c91 -42 149
-100 194 -190 35 -72 37 -81 37 -171 0 -87 -3 -102 -32 -163 -42 -89 -98 -148
-186 -193 -39 -21 -76 -45 -82 -54 -5 -9 -12 -79 -15 -155 -4 -118 -8 -141
-22 -150 -13 -8 -23 -8 -35 0 -16 10 -18 32 -21 176 -3 194 2 206 91 232 231
67 302 359 129 529 -67 65 -129 91 -222 91 -61 0 -85 -5 -130 -27 -30 -14 -67
-36 -81 -48 -51 -41 -103 9 -59 56 27 29 125 82 176 95 72 18 187 5 258 -28z"/>
<path d="M2215 2468 c-104 -38 -154 -138 -124 -245 35 -128 197 -183 306 -104
54 39 78 91 78 166 0 72 -27 123 -85 161 -44 29 -128 40 -175 22z m95 -163
c26 -32 -13 -81 -47 -59 -35 22 -23 74 17 74 10 0 23 -7 30 -15z"/>
</g>
</svg>
